<mxfile host="Electron" agent="Mozilla/5.0 (Macintosh; Intel Mac OS X 10_15_7) AppleWebKit/537.36 (KHTML, like Gecko) draw.io/26.1.1 Chrome/132.0.6834.210 Electron/34.3.3 Safari/537.36" version="26.1.1">
  <diagram id="Y1hLjWiVNRwPEsaTkbsC" name="Page-1">
    <mxGraphModel dx="1114" dy="2099" grid="1" gridSize="10" guides="1" tooltips="1" connect="1" arrows="1" fold="1" page="1" pageScale="1" pageWidth="850" pageHeight="1100" math="0" shadow="0">
      <root>
        <mxCell id="0" />
        <mxCell id="1" parent="0" />
        <mxCell id="46" value="train_test_split()&lt;br&gt;StratifiedKFold" style="shape=process;whiteSpace=wrap;html=1;backgroundOutline=1;fontSize=12;fillColor=#f8cecc;strokeColor=#b85450;align=center;" parent="1" vertex="1">
          <mxGeometry x="450" y="180" width="115" height="40" as="geometry" />
        </mxCell>
        <mxCell id="2" value="Python机器学习工作流程" style="text;html=1;strokeColor=none;fillColor=none;align=center;verticalAlign=middle;whiteSpace=wrap;rounded=0;fontSize=24;fontStyle=1" parent="1" vertex="1">
          <mxGeometry x="175" y="-90" width="500" height="30" as="geometry" />
        </mxCell>
        <mxCell id="3" value="1. 数据收集与准备" style="rounded=1;whiteSpace=wrap;html=1;fontSize=16;fillColor=#dae8fc;strokeColor=#6c8ebf;fontStyle=1" parent="1" vertex="1">
          <mxGeometry x="125" y="110" width="160" height="60" as="geometry" />
        </mxCell>
        <mxCell id="4" value="2. 数据预处理" style="rounded=1;whiteSpace=wrap;html=1;fontSize=16;fillColor=#d5e8d4;strokeColor=#82b366;fontStyle=1" parent="1" vertex="1">
          <mxGeometry x="345" y="110" width="160" height="60" as="geometry" />
        </mxCell>
        <mxCell id="5" value="3. 特征工程" style="rounded=1;whiteSpace=wrap;html=1;fontSize=16;fillColor=#ffe6cc;strokeColor=#d79b00;fontStyle=1" parent="1" vertex="1">
          <mxGeometry x="565" y="110" width="160" height="60" as="geometry" />
        </mxCell>
        <mxCell id="6" value="6. 模型评估" style="rounded=1;whiteSpace=wrap;html=1;fontSize=16;fillColor=#e1d5e7;strokeColor=#9673a6;fontStyle=1" parent="1" vertex="1">
          <mxGeometry x="345" y="350" width="160" height="60" as="geometry" />
        </mxCell>
        <mxCell id="7" value="5. 模型训练" style="rounded=1;whiteSpace=wrap;html=1;fontSize=16;fillColor=#fff2cc;strokeColor=#d6b656;fontStyle=1" parent="1" vertex="1">
          <mxGeometry x="565" y="230" width="160" height="60" as="geometry" />
        </mxCell>
        <mxCell id="8" value="4. 数据分割" style="rounded=1;whiteSpace=wrap;html=1;fontSize=16;fillColor=#f8cecc;strokeColor=#b85450;fontStyle=1" parent="1" vertex="1">
          <mxGeometry x="345" y="230" width="160" height="60" as="geometry" />
        </mxCell>
        <mxCell id="9" value="7. 超参数调优" style="rounded=1;whiteSpace=wrap;html=1;fontSize=16;fillColor=#b0e3e6;strokeColor=#0e8088;fontStyle=1" parent="1" vertex="1">
          <mxGeometry x="125" y="350" width="160" height="60" as="geometry" />
        </mxCell>
        <mxCell id="10" value="8. 模型部署" style="rounded=1;whiteSpace=wrap;html=1;fontSize=16;fillColor=#b1ddf0;strokeColor=#10739e;fontStyle=1" parent="1" vertex="1">
          <mxGeometry x="565" y="350" width="160" height="60" as="geometry" />
        </mxCell>
        <mxCell id="11" value="" style="shape=flexArrow;endArrow=classic;html=1;fontSize=16;fillColor=#dae8fc;strokeColor=#6c8ebf;width=14;endSize=6.33;" parent="1" edge="1">
          <mxGeometry width="50" height="50" relative="1" as="geometry">
            <mxPoint x="285" y="139.5" as="sourcePoint" />
            <mxPoint x="345" y="139.5" as="targetPoint" />
          </mxGeometry>
        </mxCell>
        <mxCell id="12" value="" style="shape=flexArrow;endArrow=classic;html=1;fontSize=16;fillColor=#d5e8d4;strokeColor=#82b366;width=14;endSize=6.33;" parent="1" edge="1">
          <mxGeometry width="50" height="50" relative="1" as="geometry">
            <mxPoint x="505" y="139.5" as="sourcePoint" />
            <mxPoint x="565" y="139.5" as="targetPoint" />
          </mxGeometry>
        </mxCell>
        <mxCell id="13" value="" style="shape=flexArrow;endArrow=classic;html=1;fontSize=16;fillColor=#ffe6cc;strokeColor=#d79b00;width=14;endSize=6.33;" parent="1" edge="1">
          <mxGeometry width="50" height="50" relative="1" as="geometry">
            <mxPoint x="644.5" y="170" as="sourcePoint" />
            <mxPoint x="644.5" y="230" as="targetPoint" />
          </mxGeometry>
        </mxCell>
        <mxCell id="14" value="" style="shape=flexArrow;endArrow=classic;html=1;fontSize=16;fillColor=#f8cecc;strokeColor=#b85450;width=14;endSize=6.33;" parent="1" edge="1">
          <mxGeometry width="50" height="50" relative="1" as="geometry">
            <mxPoint x="505" y="259.5" as="sourcePoint" />
            <mxPoint x="565" y="259.5" as="targetPoint" />
          </mxGeometry>
        </mxCell>
        <mxCell id="15" value="" style="shape=flexArrow;endArrow=classic;html=1;fontSize=16;fillColor=#fff2cc;strokeColor=#d6b656;width=14;endSize=6.33;" parent="1" edge="1">
          <mxGeometry width="50" height="50" relative="1" as="geometry">
            <mxPoint x="644.5" y="290" as="sourcePoint" />
            <mxPoint x="644.5" y="350" as="targetPoint" />
          </mxGeometry>
        </mxCell>
        <mxCell id="16" value="" style="shape=flexArrow;endArrow=classic;html=1;fontSize=16;fillColor=#b1ddf0;strokeColor=#10739e;width=14;endSize=6.33;" parent="1" edge="1">
          <mxGeometry width="50" height="50" relative="1" as="geometry">
            <mxPoint x="565" y="379.5" as="sourcePoint" />
            <mxPoint x="505" y="379.5" as="targetPoint" />
          </mxGeometry>
        </mxCell>
        <mxCell id="17" value="" style="shape=flexArrow;endArrow=classic;html=1;fontSize=16;fillColor=#e1d5e7;strokeColor=#9673a6;width=14;endSize=6.33;" parent="1" edge="1">
          <mxGeometry width="50" height="50" relative="1" as="geometry">
            <mxPoint x="345" y="379.5" as="sourcePoint" />
            <mxPoint x="285" y="379.5" as="targetPoint" />
          </mxGeometry>
        </mxCell>
        <mxCell id="18" value="" style="curved=1;endArrow=classic;html=1;fontSize=16;exitX=0;exitY=0.5;exitDx=0;exitDy=0;entryX=0;entryY=0.5;entryDx=0;entryDy=0;dashed=1;strokeWidth=2;fillColor=#b0e3e6;strokeColor=#0e8088;" parent="1" source="9" target="3" edge="1">
          <mxGeometry width="50" height="50" relative="1" as="geometry">
            <mxPoint x="400" y="280" as="sourcePoint" />
            <mxPoint x="450" y="230" as="targetPoint" />
            <Array as="points">
              <mxPoint x="80" y="350" />
              <mxPoint x="80" y="140" />
            </Array>
          </mxGeometry>
        </mxCell>
        <mxCell id="19" value="循环迭代优化" style="text;html=1;strokeColor=none;fillColor=none;align=center;verticalAlign=middle;whiteSpace=wrap;rounded=0;fontSize=14;fontStyle=1" parent="1" vertex="1">
          <mxGeometry x="30" y="240" width="100" height="30" as="geometry" />
        </mxCell>
        <mxCell id="20" value="- 抓取数据源&lt;br&gt;- 设计数据收集方案&lt;br&gt;- 数据采样和获取&lt;br&gt;- 探索性数据分析(EDA)" style="text;html=1;strokeColor=none;fillColor=none;align=left;verticalAlign=middle;whiteSpace=wrap;rounded=0;fontSize=12;" parent="1" vertex="1">
          <mxGeometry x="125" y="180" width="150" height="60" as="geometry" />
        </mxCell>
        <mxCell id="21" value="- 处理缺失值&lt;br&gt;- 异常值检测和处理&lt;br&gt;- 数据类型转换&lt;br&gt;- 数据规范化/标准化" style="text;html=1;strokeColor=none;fillColor=none;align=left;verticalAlign=middle;whiteSpace=wrap;rounded=0;fontSize=12;" parent="1" vertex="1">
          <mxGeometry x="340" y="170" width="150" height="60" as="geometry" />
        </mxCell>
        <mxCell id="22" value="- 特征选择&lt;br&gt;- 特征提取&lt;br&gt;- 特征转换&lt;br&gt;- 特征编码" style="text;html=1;strokeColor=none;fillColor=none;align=left;verticalAlign=middle;whiteSpace=wrap;rounded=0;fontSize=12;" parent="1" vertex="1">
          <mxGeometry x="660" y="170" width="150" height="60" as="geometry" />
        </mxCell>
        <mxCell id="23" value="- 训练集/测试集分割&lt;br&gt;- 交叉验证设置&lt;br&gt;- 处理数据不平衡问题&lt;br&gt;- 数据增强" style="text;html=1;strokeColor=none;fillColor=none;align=left;verticalAlign=middle;whiteSpace=wrap;rounded=0;fontSize=12;" parent="1" vertex="1">
          <mxGeometry x="345" y="290" width="160" height="60" as="geometry" />
        </mxCell>
        <mxCell id="24" value="- 选择适合的模型&lt;br&gt;- 设置初始参数&lt;br&gt;- 拟合模型&lt;br&gt;- 模型保存" style="text;html=1;strokeColor=none;fillColor=none;align=left;verticalAlign=middle;whiteSpace=wrap;rounded=0;fontSize=12;" parent="1" vertex="1">
          <mxGeometry x="660" y="290" width="150" height="60" as="geometry" />
        </mxCell>
        <mxCell id="25" value="- 性能指标选择&lt;br&gt;- 混淆矩阵分析&lt;br&gt;- ROC/AUC曲线&lt;br&gt;- 交叉验证评估" style="text;html=1;strokeColor=none;fillColor=none;align=left;verticalAlign=middle;whiteSpace=wrap;rounded=0;fontSize=12;" parent="1" vertex="1">
          <mxGeometry x="345" y="410" width="160" height="60" as="geometry" />
        </mxCell>
        <mxCell id="26" value="- 网格搜索&lt;br&gt;- 随机搜索&lt;br&gt;- 贝叶斯优化&lt;br&gt;- 模型集成" style="text;html=1;strokeColor=none;fillColor=none;align=left;verticalAlign=middle;whiteSpace=wrap;rounded=0;fontSize=12;" parent="1" vertex="1">
          <mxGeometry x="125" y="410" width="160" height="60" as="geometry" />
        </mxCell>
        <mxCell id="27" value="- 模型封装&lt;br&gt;- API开发&lt;br&gt;- 监控与维护&lt;br&gt;- 模型更新策略" style="text;html=1;strokeColor=none;fillColor=none;align=left;verticalAlign=middle;whiteSpace=wrap;rounded=0;fontSize=12;" parent="1" vertex="1">
          <mxGeometry x="565" y="410" width="150" height="60" as="geometry" />
        </mxCell>
        <mxCell id="28" value="" style="endArrow=none;dashed=1;html=1;dashPattern=1 3;strokeWidth=2;fontSize=14;curved=1;fillColor=#f5f5f5;strokeColor=#666666;" parent="1" edge="1">
          <mxGeometry width="50" height="50" relative="1" as="geometry">
            <mxPoint x="260" y="480" as="sourcePoint" />
            <mxPoint x="590" y="480" as="targetPoint" />
          </mxGeometry>
        </mxCell>
        <mxCell id="29" value="数据科学工具库" style="text;html=1;strokeColor=none;fillColor=none;align=center;verticalAlign=middle;whiteSpace=wrap;rounded=0;fontSize=16;fontStyle=1" parent="1" vertex="1">
          <mxGeometry x="345" y="590" width="160" height="30" as="geometry" />
        </mxCell>
        <mxCell id="30" value="" style="rounded=0;whiteSpace=wrap;html=1;fontSize=16;fillColor=#f5f5f5;fontColor=#333333;strokeColor=#666666;" parent="1" vertex="1">
          <mxGeometry x="125" y="630" width="600" height="120" as="geometry" />
        </mxCell>
        <mxCell id="31" value="数据处理" style="text;html=1;strokeColor=none;fillColor=none;align=center;verticalAlign=middle;whiteSpace=wrap;rounded=0;fontSize=14;fontStyle=1" parent="1" vertex="1">
          <mxGeometry x="125" y="630" width="80" height="30" as="geometry" />
        </mxCell>
        <mxCell id="32" value="机器学习" style="text;html=1;strokeColor=none;fillColor=none;align=center;verticalAlign=middle;whiteSpace=wrap;rounded=0;fontSize=14;fontStyle=1" parent="1" vertex="1">
          <mxGeometry x="270" y="630" width="80" height="30" as="geometry" />
        </mxCell>
        <mxCell id="33" value="深度学习" style="text;html=1;strokeColor=none;fillColor=none;align=center;verticalAlign=middle;whiteSpace=wrap;rounded=0;fontSize=14;fontStyle=1" parent="1" vertex="1">
          <mxGeometry x="385" y="630" width="80" height="30" as="geometry" />
        </mxCell>
        <mxCell id="34" value="可视化" style="text;html=1;strokeColor=none;fillColor=none;align=center;verticalAlign=middle;whiteSpace=wrap;rounded=0;fontSize=14;fontStyle=1" parent="1" vertex="1">
          <mxGeometry x="500" y="630" width="80" height="30" as="geometry" />
        </mxCell>
        <mxCell id="35" value="部署工具" style="text;html=1;strokeColor=none;fillColor=none;align=center;verticalAlign=middle;whiteSpace=wrap;rounded=0;fontSize=14;fontStyle=1" parent="1" vertex="1">
          <mxGeometry x="645" y="630" width="80" height="30" as="geometry" />
        </mxCell>
        <mxCell id="36" value="NumPy&lt;br&gt;Pandas&lt;br&gt;SciPy" style="text;html=1;strokeColor=none;fillColor=none;align=center;verticalAlign=middle;whiteSpace=wrap;rounded=0;fontSize=12;" parent="1" vertex="1">
          <mxGeometry x="125" y="670" width="80" height="60" as="geometry" />
        </mxCell>
        <mxCell id="37" value="Scikit-learn&lt;br&gt;XGBoost&lt;br&gt;LightGBM" style="text;html=1;strokeColor=none;fillColor=none;align=center;verticalAlign=middle;whiteSpace=wrap;rounded=0;fontSize=12;" parent="1" vertex="1">
          <mxGeometry x="270" y="670" width="80" height="60" as="geometry" />
        </mxCell>
        <mxCell id="38" value="TensorFlow&lt;br&gt;PyTorch&lt;br&gt;Keras" style="text;html=1;strokeColor=none;fillColor=none;align=center;verticalAlign=middle;whiteSpace=wrap;rounded=0;fontSize=12;" parent="1" vertex="1">
          <mxGeometry x="385" y="670" width="80" height="60" as="geometry" />
        </mxCell>
        <mxCell id="39" value="Matplotlib&lt;br&gt;Seaborn&lt;br&gt;Plotly" style="text;html=1;strokeColor=none;fillColor=none;align=center;verticalAlign=middle;whiteSpace=wrap;rounded=0;fontSize=12;" parent="1" vertex="1">
          <mxGeometry x="500" y="670" width="80" height="60" as="geometry" />
        </mxCell>
        <mxCell id="40" value="Flask&lt;br&gt;FastAPI&lt;br&gt;MLflow" style="text;html=1;strokeColor=none;fillColor=none;align=center;verticalAlign=middle;whiteSpace=wrap;rounded=0;fontSize=12;" parent="1" vertex="1">
          <mxGeometry x="645" y="670" width="80" height="60" as="geometry" />
        </mxCell>
        <mxCell id="41" value="" style="shape=curlyBracket;whiteSpace=wrap;html=1;rounded=1;flipH=1;fontSize=12;rotation=-90;" parent="1" vertex="1">
          <mxGeometry x="425" y="605" width="20" height="170" as="geometry" />
        </mxCell>
        <mxCell id="42" value="&lt;b&gt;Python生态系统支持&lt;/b&gt;" style="text;html=1;strokeColor=none;fillColor=none;align=center;verticalAlign=middle;whiteSpace=wrap;rounded=0;fontSize=14;" parent="1" vertex="1">
          <mxGeometry x="365" y="760" width="140" height="30" as="geometry" />
        </mxCell>
        <mxCell id="43" value="pandas.read_csv()&lt;br&gt;pandas.read_excel()&lt;br&gt;SQL查询&lt;br&gt;Web抓取" style="shape=process;whiteSpace=wrap;html=1;backgroundOutline=1;fontSize=12;fillColor=#dae8fc;strokeColor=#6c8ebf;align=center;" parent="1" vertex="1">
          <mxGeometry x="145" y="30" width="130" height="70" as="geometry" />
        </mxCell>
        <mxCell id="44" value="preprocessing.&lt;br&gt;StandardScaler()&lt;br&gt;fillna(), dropna()" style="shape=process;whiteSpace=wrap;html=1;backgroundOutline=1;fontSize=12;fillColor=#d5e8d4;strokeColor=#82b366;align=center;" parent="1" vertex="1">
          <mxGeometry x="360" y="30" width="130" height="70" as="geometry" />
        </mxCell>
        <mxCell id="45" value="RFE&lt;br&gt;PCA&lt;br&gt;OneHotEncoder" style="shape=process;whiteSpace=wrap;html=1;backgroundOutline=1;fontSize=12;fillColor=#ffe6cc;strokeColor=#d79b00;align=center;" parent="1" vertex="1">
          <mxGeometry x="585" y="30" width="130" height="70" as="geometry" />
        </mxCell>
        <mxCell id="47" value="model.fit(X_train, y_train)&lt;br&gt;pickle.dump(model)" style="shape=process;whiteSpace=wrap;html=1;backgroundOutline=1;fontSize=12;fillColor=#fff2cc;strokeColor=#d6b656;align=center;" parent="1" vertex="1">
          <mxGeometry x="730" y="170" width="130" height="70" as="geometry" />
        </mxCell>
        <mxCell id="48" value="accuracy_score()&lt;br&gt;confusion_matrix()&lt;br&gt;roc_auc_score()" style="shape=process;whiteSpace=wrap;html=1;backgroundOutline=1;fontSize=12;fillColor=#e1d5e7;strokeColor=#9673a6;align=center;" parent="1" vertex="1">
          <mxGeometry x="360" y="480" width="130" height="70" as="geometry" />
        </mxCell>
        <mxCell id="49" value="GridSearchCV&lt;br&gt;RandomizedSearchCV" style="shape=process;whiteSpace=wrap;html=1;backgroundOutline=1;fontSize=12;fillColor=#b0e3e6;strokeColor=#0e8088;align=center;" parent="1" vertex="1">
          <mxGeometry x="130" y="480" width="130" height="70" as="geometry" />
        </mxCell>
        <mxCell id="50" value="Flask API&lt;br&gt;model.predict()" style="shape=process;whiteSpace=wrap;html=1;backgroundOutline=1;fontSize=12;fillColor=#b1ddf0;strokeColor=#10739e;align=center;" parent="1" vertex="1">
          <mxGeometry x="585" y="480" width="130" height="70" as="geometry" />
        </mxCell>
        <mxCell id="51" value="" style="endArrow=none;dashed=1;html=1;dashPattern=1 3;strokeWidth=2;fontSize=12;entryX=0.5;entryY=1;entryDx=0;entryDy=0;exitX=0.5;exitY=0;exitDx=0;exitDy=0;" parent="1" source="8" target="4" edge="1">
          <mxGeometry width="50" height="50" relative="1" as="geometry">
            <mxPoint x="400" y="300" as="sourcePoint" />
            <mxPoint x="450" y="250" as="targetPoint" />
          </mxGeometry>
        </mxCell>
        <mxCell id="52" value="输入数据" style="shape=cylinder3;whiteSpace=wrap;html=1;boundedLbl=1;backgroundOutline=1;size=15;fontSize=12;fillColor=#dae8fc;strokeColor=#6c8ebf;" parent="1" vertex="1">
          <mxGeometry x="30" y="110" width="60" height="60" as="geometry" />
        </mxCell>
        <mxCell id="53" value="预测结果" style="shape=cylinder3;whiteSpace=wrap;html=1;boundedLbl=1;backgroundOutline=1;size=15;fontSize=12;fillColor=#b1ddf0;strokeColor=#10739e;" parent="1" vertex="1">
          <mxGeometry x="760" y="350" width="60" height="60" as="geometry" />
        </mxCell>
        <mxCell id="54" value="" style="shape=flexArrow;endArrow=classic;html=1;fontSize=12;width=10;endSize=4.33;fillColor=#dae8fc;strokeColor=#6c8ebf;" parent="1" edge="1">
          <mxGeometry width="50" height="50" relative="1" as="geometry">
            <mxPoint x="90" y="139.5" as="sourcePoint" />
            <mxPoint x="125" y="139.5" as="targetPoint" />
          </mxGeometry>
        </mxCell>
        <mxCell id="55" value="" style="shape=flexArrow;endArrow=classic;html=1;fontSize=12;width=10;endSize=4.33;fillColor=#b1ddf0;strokeColor=#10739e;" parent="1" edge="1">
          <mxGeometry width="50" height="50" relative="1" as="geometry">
            <mxPoint x="725" y="379.5" as="sourcePoint" />
            <mxPoint x="760" y="379.5" as="targetPoint" />
          </mxGeometry>
        </mxCell>
        <mxCell id="56" value="&lt;b&gt;监督学习&lt;/b&gt;: 分类、回归&lt;br&gt;&lt;b&gt;无监督学习&lt;/b&gt;: 聚类、降维&lt;br&gt;&lt;b&gt;强化学习&lt;/b&gt;: 奖励机制" style="text;html=1;strokeColor=none;fillColor=none;align=center;verticalAlign=middle;whiteSpace=wrap;rounded=0;fontSize=12;" parent="1" vertex="1">
          <mxGeometry x="180" y="300" width="150" height="50" as="geometry" />
        </mxCell>
        <mxCell id="57" value="问题定义" style="ellipse;shape=cloud;whiteSpace=wrap;html=1;fontSize=12;fillColor=#f5f5f5;fontColor=#333333;strokeColor=#666666;" parent="1" vertex="1">
          <mxGeometry x="155" y="-30" width="100" height="60" as="geometry" />
        </mxCell>
        <mxCell id="58" value="业务价值" style="ellipse;shape=cloud;whiteSpace=wrap;html=1;fontSize=12;fillColor=#f5f5f5;fontColor=#333333;strokeColor=#666666;" parent="1" vertex="1">
          <mxGeometry x="595" y="-30" width="100" height="60" as="geometry" />
        </mxCell>
      </root>
    </mxGraphModel>
  </diagram>
</mxfile>
